<svg width="720" height="840" viewBox="0 0 720 840" fill="none" xmlns="http://www.w3.org/2000/svg">
  <rect width="720" height="840" rx="32" fill="#F2EEE7"/>
  <path d="M0 690C118 622 236 588 360 588C484 588 602 622 720 690V840H0V690Z" fill="#D9C5A9"/>
  <circle cx="136" cy="168" r="106" fill="#9FC8B3" fill-opacity="0.5"/>
  <circle cx="582" cy="238" r="118" fill="#E48A5A" fill-opacity="0.25"/>
  <circle cx="360" cy="198" r="84" fill="#F6D8C9"/>
  <path d="M284 288C312 322 338 338 360 338C382 338 408 322 436 288L504 436L440 470L420 390L410 560H310L300 390L280 470L216 436L284 288Z" fill="#214A5A"/>
  <path d="M310 560H410L452 792H384L360 634L336 792H268L310 560Z" fill="#C05630"/>
  <path d="M282 182C282 124 317 88 360 88C403 88 438 124 438 182V216C407 182 370 166 327 166C311 166 296 169 282 176V182Z" fill="#2A2523"/>
</svg>