<svg width="720" height="840" viewBox="0 0 720 840" fill="none" xmlns="http://www.w3.org/2000/svg">
  <rect width="720" height="840" rx="32" fill="#EFE2D8"/>
  <circle cx="560" cy="140" r="120" fill="#F4C98E" fill-opacity="0.45"/>
  <circle cx="158" cy="708" r="160" fill="#8BC2B1" fill-opacity="0.34"/>
  <rect x="170" y="170" width="380" height="520" rx="190" fill="#D8673F"/>
  <ellipse cx="360" cy="332" rx="128" ry="150" fill="#F5D2C2"/>
  <path d="M234 370C268 452 319 492 360 492C401 492 452 452 486 370V630H234V370Z" fill="#1F3E52"/>
  <path d="M252 304C252 225 299 176 360 176C421 176 468 225 468 304V328C434 280 385 256 320 256C294 256 271 261 252 272V304Z" fill="#2D231F"/>
  <circle cx="315" cy="330" r="10" fill="#2D231F"/>
  <circle cx="405" cy="330" r="10" fill="#2D231F"/>
  <path d="M326 392C340 404 380 404 394 392" stroke="#AD6D61" stroke-width="10" stroke-linecap="round"/>
</svg>